<svg width="56" height="48" viewBox="0 0 56 48" fill="none" xmlns="http://www.w3.org/2000/svg">
<path d="M49.3334 25V46.3333" stroke="#272E35" stroke-width="3" stroke-linecap="round" stroke-linejoin="round"/>
<path d="M35.1987 32.1165V46.3298" stroke="#272E35" stroke-width="3" stroke-linecap="round" stroke-linejoin="round"/>
<path d="M6.66663 38.3333V46.3333" stroke="#272E35" stroke-width="3" stroke-linecap="round" stroke-linejoin="round"/>
<path d="M20.7981 29.2627V46.3294" stroke="#272E35" stroke-width="3" stroke-linecap="round" stroke-linejoin="round"/>
<path d="M38.5037 15.6896C40.3262 17.512 40.3262 20.4668 38.5037 22.2892C36.6813 24.1117 33.7265 24.1117 31.9041 22.2892C30.0816 20.4668 30.0816 17.512 31.9041 15.6896C33.7265 13.8671 36.6813 13.8671 38.5037 15.6896Z" stroke="#272E35" stroke-width="3" stroke-linecap="round" stroke-linejoin="round"/>
<path d="M52.9139 3.68007C54.7363 5.50252 54.7363 8.4573 52.9139 10.2797C51.0914 12.1022 48.1366 12.1022 46.3142 10.2797C44.4918 8.45727 44.4918 5.5025 46.3142 3.68007C48.1367 1.85762 51.0914 1.85762 52.9139 3.68007Z" stroke="#272E35" stroke-width="3" stroke-linecap="round" stroke-linejoin="round"/>
<path d="M9.68573 18.0744C11.5082 19.8968 11.5082 22.8516 9.68573 24.674C7.86328 26.4965 4.9085 26.4965 3.08607 24.674C1.26363 22.8516 1.26363 19.8968 3.08607 18.0744C4.90852 16.2519 7.8633 16.2519 9.68573 18.0744" stroke="#272E35" stroke-width="3" stroke-linecap="round" stroke-linejoin="round"/>
<path d="M24.0969 6.06605C25.9193 7.8885 25.9193 10.8433 24.0969 12.6657C22.2744 14.4882 19.3196 14.4882 17.4972 12.6657C15.6748 10.8433 15.6748 7.88848 17.4972 6.06605C19.3197 4.24361 22.2744 4.24361 24.0969 6.06605Z" stroke="#272E35" stroke-width="3" stroke-linecap="round" stroke-linejoin="round"/>
<path d="M46.0517 9.95898L38.7717 16.0123" stroke="#272E35" stroke-width="3" stroke-linecap="round" stroke-linejoin="round"/>
<path d="M31.3066 16.4123L24.6666 11.959" stroke="#272E35" stroke-width="3" stroke-linecap="round" stroke-linejoin="round"/>
<path d="M9.97375 18.4095L17.2271 12.3562" stroke="#272E35" stroke-width="3" stroke-linecap="round" stroke-linejoin="round"/>
</svg>
