<svg width="60" height="52" viewBox="0 0 60 52" fill="none" xmlns="http://www.w3.org/2000/svg">
<path d="M2 24L6 20L10 24" stroke="#272E35" stroke-width="3" stroke-linecap="round" stroke-linejoin="round"/>
<path d="M58 28L54 32L50 28" stroke="#272E35" stroke-width="3" stroke-linecap="round" stroke-linejoin="round"/>
<path d="M10.4742 12.1067C14.8262 6.00267 21.9329 2 29.9996 2C43.2529 2 53.9996 12.7467 53.9996 26C53.9996 27.824 53.7782 29.5947 53.3942 31.3013" stroke="#272E35" stroke-width="3" stroke-linecap="round" stroke-linejoin="round"/>
<path d="M49.5249 12.105C43.3862 14.169 36.8342 15.3316 29.9996 15.3316C23.1649 15.3316 16.6129 14.169 10.4742 12.105" stroke="#272E35" stroke-width="3" stroke-linecap="round" stroke-linejoin="round"/>
<path d="M49.5148 39.8824C45.1655 45.9864 38.0588 49.9891 29.9895 49.9891C16.7362 49.9891 5.9895 39.2424 5.9895 25.9891C5.9895 24.1651 6.21084 22.3944 6.59484 20.6877" stroke="#272E35" stroke-width="3" stroke-linecap="round" stroke-linejoin="round"/>
<path d="M10.468 39.8829C16.6066 37.8189 23.1586 36.6562 29.9933 36.6562C36.828 36.6562 43.38 37.8189 49.5186 39.8829" stroke="#272E35" stroke-width="3" stroke-linecap="round" stroke-linejoin="round"/>
<path d="M30 50C35.5228 50 40 39.2548 40 26C40 12.7452 35.5228 2 30 2C24.4772 2 20 12.7452 20 26C20 39.2548 24.4772 50 30 50Z" stroke="#272E35" stroke-width="3" stroke-linecap="round" stroke-linejoin="round"/>
</svg>
